<svg width="218" height="26" viewBox="0 0 218 26" fill="none" xmlns="http://www.w3.org/2000/svg">
<path d="M5.488 25H0.376V0.987998H17.368V5.488H5.488V10.564H17.116V15.064H5.488V25Z" fill="#44C697"/>
<path d="M37.1424 25H32.5704V22.804C31.0104 24.556 28.9704 25.432 26.4504 25.432C24.5784 25.432 23.1744 24.952 22.2384 23.992C21.3024 23.032 20.8344 21.688 20.8344 19.96V7.612H25.4064V18.16C25.4064 20.296 26.4744 21.364 28.6104 21.364C30.2184 21.364 31.5384 20.704 32.5704 19.384V7.612H37.1424V25ZM46.2541 25H41.6821V7.612H46.2541V9.988C46.9021 9.172 47.7301 8.5 48.7381 7.972C49.7461 7.444 50.7661 7.18 51.7981 7.18V11.644C51.4861 11.572 51.0661 11.536 50.5381 11.536C49.7701 11.536 48.9541 11.728 48.0901 12.112C47.2261 12.496 46.6141 12.964 46.2541 13.516V25ZM70.9627 25H66.3907V14.488C66.3907 12.328 65.3227 11.248 63.1867 11.248C61.5307 11.248 60.2107 11.932 59.2267 13.3V25H54.6547V7.612H59.2267V9.88C60.7387 8.08 62.7667 7.18 65.3107 7.18C67.1827 7.18 68.5867 7.672 69.5227 8.656C70.4827 9.64 70.9627 10.996 70.9627 12.724V25ZM77.7704 5.74C77.0264 5.74 76.3784 5.476 75.8264 4.948C75.2984 4.396 75.0344 3.748 75.0344 3.004C75.0344 2.26 75.2984 1.624 75.8264 1.096C76.3784 0.567998 77.0264 0.303998 77.7704 0.303998C78.5384 0.303998 79.1864 0.567998 79.7144 1.096C80.2424 1.624 80.5064 2.26 80.5064 3.004C80.5064 3.748 80.2424 4.396 79.7144 4.948C79.1864 5.476 78.5384 5.74 77.7704 5.74ZM80.0744 25H75.5024V7.612H80.0744V25ZM90.4398 25.432C88.8318 25.432 87.6078 25.024 86.7678 24.208C85.9278 23.392 85.5078 22.216 85.5078 20.68V11.608H82.6278V7.612H85.5078V2.86H90.1158V7.612H93.6438V11.608H90.1158V19.456C90.1158 20.008 90.2598 20.464 90.5478 20.824C90.8358 21.184 91.2198 21.364 91.6998 21.364C92.4198 21.364 92.9478 21.196 93.2838 20.86L94.2558 24.316C93.4158 25.06 92.1438 25.432 90.4398 25.432ZM113.08 25H108.508V22.804C106.948 24.556 104.908 25.432 102.388 25.432C100.516 25.432 99.1119 24.952 98.1759 23.992C97.2399 23.032 96.7719 21.688 96.7719 19.96V7.612H101.344V18.16C101.344 20.296 102.412 21.364 104.548 21.364C106.156 21.364 107.476 20.704 108.508 19.384V7.612H113.08V25ZM122.192 25H117.62V7.612H122.192V9.988C122.84 9.172 123.668 8.5 124.676 7.972C125.684 7.444 126.704 7.18 127.736 7.18V11.644C127.424 11.572 127.004 11.536 126.476 11.536C125.708 11.536 124.892 11.728 124.028 12.112C123.164 12.496 122.552 12.964 122.192 13.516V25ZM138.764 25.432C136.076 25.432 133.856 24.592 132.104 22.912C130.352 21.232 129.476 19.024 129.476 16.288C129.476 13.72 130.316 11.56 131.996 9.808C133.7 8.056 135.86 7.18 138.476 7.18C141.068 7.18 143.168 8.068 144.776 9.844C146.384 11.596 147.188 13.9 147.188 16.756V17.764H134.264C134.408 18.916 134.924 19.876 135.812 20.644C136.7 21.412 137.852 21.796 139.268 21.796C140.036 21.796 140.864 21.64 141.752 21.328C142.664 21.016 143.384 20.596 143.912 20.068L145.928 23.02C144.176 24.628 141.788 25.432 138.764 25.432ZM142.76 14.668C142.688 13.684 142.292 12.796 141.572 12.004C140.876 11.212 139.844 10.816 138.476 10.816C137.18 10.816 136.172 11.212 135.452 12.004C134.732 12.772 134.312 13.66 134.192 14.668H142.76ZM154.742 24.532C154.166 25.108 153.482 25.396 152.69 25.396C151.898 25.396 151.214 25.108 150.638 24.532C150.062 23.956 149.774 23.272 149.774 22.48C149.774 21.688 150.062 21.004 150.638 20.428C151.214 19.852 151.898 19.564 152.69 19.564C153.482 19.564 154.166 19.852 154.742 20.428C155.318 21.004 155.606 21.688 155.606 22.48C155.606 23.272 155.318 23.956 154.742 24.532ZM164.409 25.432C162.801 25.432 161.577 25.024 160.737 24.208C159.897 23.392 159.477 22.216 159.477 20.68V11.608H156.597V7.612H159.477V2.86H164.085V7.612H167.613V11.608H164.085V19.456C164.085 20.008 164.229 20.464 164.517 20.824C164.805 21.184 165.189 21.364 165.669 21.364C166.389 21.364 166.917 21.196 167.253 20.86L168.225 24.316C167.385 25.06 166.113 25.432 164.409 25.432ZM178.913 25.432C176.225 25.432 174.005 24.592 172.253 22.912C170.501 21.232 169.625 19.024 169.625 16.288C169.625 13.72 170.465 11.56 172.145 9.808C173.849 8.056 176.009 7.18 178.625 7.18C181.217 7.18 183.317 8.068 184.925 9.844C186.533 11.596 187.337 13.9 187.337 16.756V17.764H174.413C174.557 18.916 175.073 19.876 175.961 20.644C176.849 21.412 178.001 21.796 179.417 21.796C180.185 21.796 181.013 21.64 181.901 21.328C182.813 21.016 183.533 20.596 184.061 20.068L186.077 23.02C184.325 24.628 181.937 25.432 178.913 25.432ZM182.909 14.668C182.837 13.684 182.441 12.796 181.721 12.004C181.025 11.212 179.993 10.816 178.625 10.816C177.329 10.816 176.321 11.212 175.601 12.004C174.881 12.772 174.461 13.66 174.341 14.668H182.909ZM196.903 25.432C195.391 25.432 193.939 25.192 192.547 24.712C191.179 24.232 190.039 23.572 189.127 22.732L191.107 19.528C191.779 20.152 192.691 20.704 193.843 21.184C194.995 21.664 196.087 21.904 197.119 21.904C198.079 21.904 198.799 21.736 199.279 21.4C199.783 21.064 200.035 20.608 200.035 20.032C200.035 19.6 199.771 19.252 199.243 18.988C198.739 18.7 198.103 18.496 197.335 18.376C196.591 18.256 195.763 18.076 194.851 17.836C193.963 17.596 193.135 17.308 192.367 16.972C191.623 16.636 190.987 16.108 190.459 15.388C189.955 14.644 189.703 13.732 189.703 12.652C189.703 11.116 190.339 9.82 191.611 8.764C192.883 7.708 194.623 7.18 196.831 7.18C199.519 7.18 201.859 7.972 203.851 9.556L202.015 12.688C201.463 12.112 200.719 11.632 199.783 11.248C198.871 10.864 197.899 10.672 196.867 10.672C196.051 10.672 195.391 10.84 194.887 11.176C194.383 11.488 194.131 11.896 194.131 12.4C194.131 12.784 194.383 13.108 194.887 13.372C195.391 13.612 196.027 13.792 196.795 13.912C197.563 14.032 198.391 14.224 199.279 14.488C200.167 14.728 200.995 15.028 201.763 15.388C202.531 15.724 203.167 16.276 203.671 17.044C204.175 17.812 204.427 18.748 204.427 19.852C204.427 21.484 203.755 22.828 202.411 23.884C201.091 24.916 199.255 25.432 196.903 25.432ZM213.627 25.432C212.019 25.432 210.795 25.024 209.955 24.208C209.115 23.392 208.695 22.216 208.695 20.68V11.608H205.815V7.612H208.695V2.86H213.303V7.612H216.831V11.608H213.303V19.456C213.303 20.008 213.447 20.464 213.735 20.824C214.023 21.184 214.407 21.364 214.887 21.364C215.607 21.364 216.135 21.196 216.471 20.86L217.443 24.316C216.603 25.06 215.331 25.432 213.627 25.432Z" fill="white"/>
</svg>
